<svg xmlns="http://www.w3.org/2000/svg" viewBox="0 0 512 512" style="height: 512px; width: 512px;"><defs><linearGradient x1="0" x2="1" y1="1" y2="0" id="bg-gradient"><stop offset="0%" stop-color="#6e00ff" stop-opacity="0.5"></stop><stop offset="100%" stop-color="#c900ff" stop-opacity="1"></stop></linearGradient></defs><circle cx="256" cy="256" r="256" fill="url(#bg-gradient)"></circle><path fill="#9966cc" d="M85.183 408.608H26V103.313h59.183v305.295zm0-373.513L35.075 85.072h50.108V35.095zM408.72 85.15V25.967H103.386v59.184H408.72zM35.075 426.849l50.108 50.11v-50.11H35.075zM476.978 85.164l-50.109-50.109v50.109h50.109zm-68.311 341.685H103.386v59.184h305.281v-59.184zm.42-323.536v305.124H103.965V103.313h305.124zm-21.91 17.098H121.062v268.482c13.152-230.342 44.059-239.548 266.115-268.482zM486 103.313h-59.183v305.295H486V103.313zm-59.183 373.619l50.108-50.109h-50.108v50.109z" transform="translate(51.2, 51.2) scale(0.8, 0.8) rotate(-360, 256, 256)" stroke="#7802dd" stroke-width="8"></path></svg>