<svg xmlns="http://www.w3.org/2000/svg" viewBox="0 0 512 512" style="height: 16px; width: 16px;"><defs><filter id="glow"><feGaussianBlur stdDeviation="5" result="coloredBlur"></feGaussianBlur><feMerge><feMergeNode in="coloredBlur"></feMergeNode><feMergeNode in="SourceGraphic"></feMergeNode></feMerge></filter><linearGradient x1="0" x2="0" y1="0" y2="1" id="fg-gradient"><stop offset="0%" stop-color="#ff0004" stop-opacity="1"></stop><stop offset="100%" stop-color="#ff6d00" stop-opacity="1"></stop></linearGradient><radialGradient id="bg-gradient"><stop offset="0%" stop-color="#000000" stop-opacity="1"></stop><stop offset="100%" stop-color="#ffffff" stop-opacity="0"></stop></radialGradient></defs><circle cx="256" cy="256" r="256" fill="url(#bg-gradient)" opacity="1" stroke="#ff0000" stroke-width="0"></circle><path fill="url(#fg-gradient)" opacity="1" d="M247 32v23.21C143.25 59.8 59.798 143.25 55.21 247H32v18h23.21C59.8 368.75 143.25 452.202 247 456.79V480h18v-23.21C368.75 452.2 452.202 368.75 456.79 265H480v-18h-23.21C452.2 143.25 368.75 59.798 265 55.21V32h-18zm0 41.223V128h18V73.223C359 77.76 434.24 153 438.777 247H384v18h54.777C434.24 359 359 434.24 265 438.777V384h-18v54.777C153 434.24 77.76 359 73.223 265H128v-18H73.223C77.76 153 153 77.76 247 73.223zM247 224v23h-23v18h23v23h18v-23h23v-18h-23v-23h-18z" transform="translate(384, 128) scale(-0.5, 0.5) rotate(720, 256, 256)" clip-path="false" filter="url(#glow)"></path><g font-family="Arial, Helvetica, sans-serif" font-size="120" font-style="normal" font-weight="bold" text-anchor="middle" class="" transform="translate(256,300)" style="touch-action: none;"><text stroke="#000" stroke-width="30" opacity="1"></text><text fill="#fff" opacity="1"></text></g></svg>