<svg xmlns="http://www.w3.org/2000/svg" viewBox="0 0 512 512" style="height: 16px; width: 16px;"><defs><filter id="glow"><feGaussianBlur stdDeviation="5" result="coloredBlur"></feGaussianBlur><feMerge><feMergeNode in="coloredBlur"></feMergeNode><feMergeNode in="SourceGraphic"></feMergeNode></feMerge></filter><linearGradient id="fg-gradient" x1="0" x2="0" y1="0" y2="1"><stop offset="0%" stop-color="#00ffff" stop-opacity="1"></stop><stop offset="100%" stop-color="#0037ff" stop-opacity="1"></stop></linearGradient><radialGradient id="bg-gradient"><stop offset="0%" stop-color="#000000" stop-opacity="1"></stop><stop offset="100%" stop-color="#ffffff" stop-opacity="0"></stop></radialGradient></defs><circle cx="256" cy="256" r="256" fill="url(#bg-gradient)" opacity="1" stroke="#ff0000" stroke-width="0"></circle><path fill="url(#fg-gradient)" opacity="1" d="M263.09 50c-11.882-.007-23.875 1.018-35.857 3.13C142.026 68.156 75.156 135.026 60.13 220.233 45.108 305.44 85.075 391.15 160.005 434.41c32.782 18.927 69.254 27.996 105.463 27.553 46.555-.57 92.675-16.865 129.957-48.15l-30.855-36.768c-50.95 42.75-122.968 49.05-180.566 15.797-57.597-33.254-88.152-98.777-76.603-164.274 11.55-65.497 62.672-116.62 128.17-128.168 51.656-9.108 103.323 7.98 139.17 43.862L327 192h128V64l-46.34 46.342C370.242 71.962 317.83 50.03 263.09 50z" transform="translate(128, 128) scale(0.5, 0.5) rotate(720, 256, 256)" clip-path="false" filter="url(#glow)"></path><g font-family="Arial, Helvetica, sans-serif" font-size="120" font-style="normal" font-weight="bold" text-anchor="middle" class="" transform="translate(256,300)" style="touch-action: none;"><text stroke="#000" stroke-width="30" opacity="1"></text><text fill="#fff" opacity="1"></text></g></svg>